<?xml version="1.0" encoding="UTF-8"?>
<svg width="24px" height="24px" viewBox="0 0 24 24" version="1.1" xmlns="http://www.w3.org/2000/svg" xmlns:xlink="http://www.w3.org/1999/xlink">
    <title>github</title>
    <g id="Page-1" stroke="none" stroke-width="1" fill="none" fill-rule="evenodd">
        <g id="github">
            <rect id="矩形" fill-opacity="0" fill="#D8D8D8" x="0" y="0" width="24" height="24"></rect>
            <path d="M8.02741935,19.3247649 C8.02741935,19.424019 7.91612903,19.5034222 7.77580645,19.5034222 C7.61612903,19.5183103 7.50483871,19.4389071 7.50483871,19.3247649 C7.50483871,19.2255108 7.61612903,19.1461076 7.75645161,19.1461076 C7.9016129,19.1312195 8.02741935,19.2106227 8.02741935,19.3247649 Z M6.52258065,19.1014433 C6.48870968,19.2006973 6.58548387,19.3148395 6.73064516,19.3446157 C6.85645161,19.3942427 7.0016129,19.3446157 7.03064516,19.2453617 C7.05967742,19.1461076 6.96774194,19.0319654 6.82258065,18.9873011 C6.69677419,18.9525622 6.55645161,19.0021892 6.52258065,19.1014433 Z M8.66129032,19.0170773 C8.52096774,19.0518162 8.42419355,19.1461076 8.43870968,19.2602498 C8.45322581,19.3595038 8.57903226,19.424019 8.72419355,19.38928 C8.86451613,19.3545411 8.96129032,19.2602498 8.94677419,19.1609957 C8.93225806,19.0667044 8.8016129,19.0021892 8.66129032,19.0170773 Z M11.8451613,0 C5.13387097,0 0,5.2257261 0,12.108995 C0,17.6126324 3.37741935,22.3222374 8.2016129,23.9797802 C8.82096774,24.0939223 9.03870968,23.7018688 9.03870968,23.3792931 C9.03870968,23.0716056 9.02419355,21.3743612 9.02419355,20.3321936 C9.02419355,20.3321936 5.63709677,21.076599 4.92580645,18.8533081 C4.92580645,18.8533081 4.37419355,17.4091616 3.58064516,17.0369589 C3.58064516,17.0369589 2.47258065,16.2578145 3.65806452,16.2727026 C3.65806452,16.2727026 4.86290323,16.3719567 5.52580645,17.55308 C6.58548387,19.4686833 8.36129032,18.9178233 9.05322581,18.5902849 C9.16451613,17.7962524 9.47903226,17.2453924 9.82741935,16.917854 C7.12258065,16.6101664 4.39354839,16.2081875 4.39354839,11.4340674 C4.39354839,10.0693241 4.76129032,9.38447109 5.53548387,8.51103539 C5.40967742,8.1884597 4.9983871,6.85845534 5.66129032,5.14136015 C6.67258065,4.81878447 9,6.48128992 9,6.48128992 C9.96774194,6.20337856 11.0080645,6.05946018 12.0387097,6.05946018 C13.0693548,6.05946018 14.1096774,6.20337856 15.0774194,6.48128992 C15.0774194,6.48128992 17.4048387,4.81382177 18.416129,5.14136015 C19.0790323,6.86341804 18.6677419,8.1884597 18.5419355,8.51103539 C19.316129,9.38943379 19.7903226,10.0742868 19.7903226,11.4340674 C19.7903226,16.2230756 16.9403226,16.6052037 14.2354839,16.917854 C14.6806452,17.3099075 15.0580645,18.054313 15.0580645,19.2205481 C15.0580645,20.892979 15.0435484,22.9624261 15.0435484,23.3693677 C15.0435484,23.6919434 15.266129,24.0839969 15.8806452,23.9698548 C20.7193548,22.3222374 24,17.6126324 24,12.108995 C24,5.2257261 18.5564516,0 11.8451613,0 Z M4.70322581,17.1163621 C4.64032258,17.1659892 4.65483871,17.2801313 4.73709677,17.3744227 C4.81451613,17.4538259 4.92580645,17.4885648 4.98870968,17.4240497 C5.0516129,17.3744227 5.03709677,17.2602805 4.95483871,17.1659892 C4.87741935,17.0865859 4.76612903,17.051847 4.70322581,17.1163621 Z M4.18064516,16.7143832 C4.14677419,16.7788983 4.19516129,16.8583016 4.29193548,16.9079286 C4.36935484,16.9575556 4.46612903,16.9426675 4.5,16.8731897 C4.53387097,16.8086746 4.48548387,16.7292713 4.38870968,16.6796443 C4.29193548,16.6498681 4.21451613,16.6647562 4.18064516,16.7143832 Z M5.7483871,18.4811054 C5.67096774,18.5456206 5.7,18.6945016 5.81129032,18.788793 C5.92258065,18.9029352 6.06290323,18.9178233 6.12580645,18.83842 C6.18870968,18.7739049 6.15967742,18.6250238 6.06290323,18.5307324 C5.95645161,18.4165903 5.81129032,18.4017022 5.7483871,18.4811054 Z M5.19677419,17.7515881 C5.11935484,17.8012151 5.11935484,17.9302454 5.19677419,18.0443876 C5.27419355,18.1585297 5.40483871,18.2081568 5.46774194,18.1585297 C5.54516129,18.0940146 5.54516129,17.9649843 5.46774194,17.8508422 C5.4,17.7367 5.27419355,17.687073 5.19677419,17.7515881 Z" fill="#869AB8" fill-rule="nonzero"></path>
        </g>
    </g>
</svg>