<?xml version="1.0" encoding="UTF-8"?>
<svg width="24px" height="24px" viewBox="0 0 24 24" version="1.1" xmlns="http://www.w3.org/2000/svg" xmlns:xlink="http://www.w3.org/1999/xlink">
    <title>mail</title>
    <g id="Page-1" stroke="none" stroke-width="1" fill="none" fill-rule="evenodd">
        <g id="mail">
            <rect id="矩形" fill-opacity="0" fill="#D8D8D8" x="0" y="0" width="24" height="24"></rect>
            <path d="M11.6035714,10.4723214 C11.8473214,10.5955357 12.1392857,10.5928571 12.3830357,10.4669643 L23.9946429,4.41607143 C23.9142857,3.06875 22.7946429,2 21.4285714,2 L2.57142857,2 C1.15446429,2 0,3.15446429 0,4.57142857 L0,4.67321429 L11.6035714,10.4723214 Z M13.1758929,11.9857143 C12.80625,12.1785714 12.3964286,12.275 11.9866071,12.275 C11.5928571,12.275 11.1991071,12.1839286 10.8375,12.0044643 L0,6.58839286 L0,18.6901786 C0,20.1071429 1.15446429,21.2616071 2.57142857,21.2616071 L21.4285714,21.2616071 C22.8455357,21.2616071 24,20.1071429 24,18.6901786 L24,6.34464286 L13.1758929,11.9857143 Z" fill="#869AB8" fill-rule="nonzero"></path>
        </g>
    </g>
</svg>