<?xml version="1.0" encoding="UTF-8"?>
<svg width="24px" height="24px" viewBox="0 0 24 24" version="1.1" xmlns="http://www.w3.org/2000/svg" xmlns:xlink="http://www.w3.org/1999/xlink">
    <title>twitter</title>
    <g id="Page-1" stroke="none" stroke-width="1" fill="none" fill-rule="evenodd">
        <g id="twitter">
            <rect id="矩形" fill-opacity="0" fill="#D8D8D8" x="0" y="0" width="24" height="24"></rect>
            <path d="M24,4.25546653 C23.1162857,4.62702853 22.1576041,4.8939609 21.1665491,4.99715098 C22.1873753,4.40405934 22.9637255,3.46970466 23.3294902,2.35643537 C22.3850143,2.90547243 21.3191093,3.30596238 20.2080316,3.51375924 C19.3101115,2.57794216 18.0311192,2 16.6151556,2 C13.8889282,2 11.6964737,4.1522536 11.6964737,6.79299206 C11.6964737,7.1645769 11.7430529,7.53602465 11.817903,7.89255142 C7.73647351,7.686057 4.09704182,5.78567769 1.67579405,2.87521918 C1.24947891,3.58671892 1.00516699,4.40405934 1.00516699,5.29577614 C1.00516699,6.95810534 1.87340961,8.426439 3.19762142,9.287834 C2.39161716,9.25762645 1.62919147,9.03472581 0.974129864,8.67966144 L0.974129864,8.73879694 C0.974129864,11.0671775 2.66396563,12.9979014 4.91856465,13.4437484 C4.50769775,13.5469613 4.0658406,13.606074 3.62398345,13.606074 C3.30493863,13.606074 2.99993553,13.5771689 2.69645616,13.5317662 C3.32050408,15.4322597 5.13312874,16.8124842 7.29456948,16.8578869 C5.60325687,18.1486313 3.48701219,18.9055109 1.18731088,18.9055109 C0.776490859,18.9055109 0.395278012,18.891801 0,18.8477464 C2.17836582,20.2127986 4.76612171,21 7.55435307,21 C16.5995667,21 21.5492388,13.6970165 21.5492388,7.35992058 C21.5492388,7.15077557 21.5492388,6.94441825 21.535033,6.73522755 C22.4922378,6.05265576 23.3294902,5.20499354 24,4.25546653 Z" fill="#869AB8" fill-rule="nonzero"></path>
        </g>
    </g>
</svg>