<?xml version="1.0" encoding="UTF-8"?>
<svg width="158px" height="53px" viewBox="0 0 158 53" version="1.1" xmlns="http://www.w3.org/2000/svg" xmlns:xlink="http://www.w3.org/1999/xlink">
    <title>brand</title>
    <defs>
        <linearGradient x1="100%" y1="55.6261016%" x2="0%" y2="44.3738984%" id="linearGradient-1">
            <stop stop-color="#FF0050" offset="0%"></stop>
            <stop stop-color="#7000FF" offset="71.4447846%"></stop>
            <stop stop-color="#0027FF" offset="100%"></stop>
        </linearGradient>
    </defs>
    <g id="brand" stroke="none" stroke-width="1" fill="none" fill-rule="evenodd">
        <path d="M131.5,0 C146.135546,-2.68850616e-15 158,11.8644541 158,26.5 C158,41.1355459 146.135546,53 131.5,53 L26.5,53 C11.8644541,53 1.79233744e-15,41.1355459 0,26.5 C-1.79233744e-15,11.8644541 11.8644541,2.68850616e-15 26.5,0 L131.5,0 Z M61.7542374,16.9393939 C60.9035375,16.9393939 60.2139089,17.6448846 60.2139089,18.5151515 C60.2139089,18.8185041 60.2977015,19.1018358 60.4429007,19.3422455 L60.4429007,19.3422455 L58.6440698,22.1037032 L58.5794428,22.1894747 C58.4398446,22.3505135 58.2407374,22.4471284 58.0281185,22.4541359 L58.0281185,22.4541359 L54.8227942,22.453825 C53.4176643,20.5405612 51.1808258,19.3030303 48.6614452,19.3030303 C46.1420646,19.3030303 43.9052261,20.5405612 42.5000963,22.453825 L42.5000963,22.453825 L39.3471043,22.4541359 C39.099049,22.4459605 38.8693844,22.3158195 38.731153,22.1037032 L38.731153,22.1037032 L36.9317074,19.3432625 C37.0772848,19.102635 37.161314,18.818932 37.161314,18.5151515 C37.161314,17.6448846 36.4716854,16.9393939 35.6209855,16.9393939 C34.7702855,16.9393939 34.080657,17.6448846 34.080657,18.5151515 C34.080657,19.3370702 34.6957886,20.0120127 35.4807842,20.0844695 L35.4807842,20.0844695 L35.566,20.088 L37.4495222,22.9777762 L37.4701482,23.0088896 C37.9009543,23.6477758 38.61171,24.030303 39.3719684,24.030303 L39.3719684,24.030303 L41.6009054,24.0296974 C41.3870494,24.5303046 41.2225761,25.058039 41.113785,25.6064564 L41.113785,25.6064564 L36.3159954,25.6060606 L36.2911313,25.6056511 C36.043076,25.5974756 35.8134114,25.4673346 35.67518,25.2552183 L35.67518,25.2552183 L33.8632689,22.4742328 C34.0013194,22.2380666 34.080657,21.9618449 34.080657,21.6666667 C34.080657,20.7963998 33.3910284,20.0909091 32.5403285,20.0909091 C31.6896286,20.0909091 31,20.7963998 31,21.6666667 C31,22.4885854 31.6151316,23.1635278 32.4001272,23.2359846 L32.4001272,23.2359846 L32.511,23.241 L34.3935493,26.1292914 L34.4141753,26.1604048 C34.8449813,26.799291 35.555737,27.1818182 36.3159954,27.1818182 L36.3159954,27.1818182 L40.9598028,27.1818182 C40.9598028,27.7216746 41.0128786,28.2488493 41.1139833,28.7581794 L41.1139833,28.7581794 L36.3159954,28.7575758 L36.1415348,28.7643088 C35.4480465,28.817943 34.8118424,29.1892481 34.4141753,29.7789891 L34.4141753,29.7789891 L34.3935493,29.8101026 L32.511,32.697 L32.5403285,32.6969697 C31.6896286,32.6969697 31,33.4024604 31,34.2727273 C31,35.1429942 31.6896286,35.8484848 32.5403285,35.8484848 C33.3910284,35.8484848 34.080657,35.1429942 34.080657,34.2727273 C34.080657,33.977549 34.0013194,33.7013273 33.8632689,33.4651611 L33.8632689,33.4651611 L35.67518,30.6841756 L35.7398071,30.5984041 C35.8794052,30.4373653 36.0785125,30.3407504 36.2911313,30.3337429 L36.2911313,30.3337429 L41.6009054,30.333939 C41.8412452,30.896541 42.143956,31.4248809 42.5000963,31.9098114 L42.5000963,31.9098114 L39.3966524,31.9090909 L39.2221918,31.9158239 C38.5287035,31.9694582 37.8924994,32.3407632 37.4948322,32.9305043 L37.4948322,32.9305043 L37.4742062,32.9616177 L35.592,35.849 L35.6209855,35.8484848 C34.7702855,35.8484848 34.080657,36.5539755 34.080657,37.4242424 C34.080657,38.2945093 34.7702855,39 35.6209855,39 C36.4716854,39 37.161314,38.2945093 37.161314,37.4242424 C37.161314,37.1290191 37.0819522,36.8527582 36.9438627,36.6165682 L36.9438627,36.6165682 L38.755837,33.8356908 L38.820464,33.7499193 C38.9600622,33.5888804 39.1591694,33.4922655 39.3717882,33.485258 L39.3717882,33.485258 L39.3966524,33.4848485 L44.0399567,33.485039 C45.3272346,34.4743585 46.9274165,35.0606061 48.6614452,35.0606061 C50.3954739,35.0606061 51.9956558,34.4743585 53.2829337,33.485039 L53.2829337,33.485039 L57.9785704,33.4848485 L58.0034345,33.485258 C58.2514898,33.4934334 58.4811544,33.6235745 58.6193858,33.8356908 L58.6193858,33.8356908 L60.4307601,36.6175954 C60.2930408,36.853559 60.2139089,37.129447 60.2139089,37.4242424 C60.2139089,38.2945093 60.9035375,39 61.7542374,39 C62.6049373,39 63.2945659,38.2945093 63.2945659,37.4242424 C63.2945659,36.6023237 62.6794342,35.9273813 61.8944387,35.8549245 L61.8944387,35.8549245 L61.783,35.849 L59.9010166,32.9616177 L59.8803906,32.9305043 C59.4495845,32.2916181 58.7388288,31.9090909 57.9785704,31.9090909 L57.9785704,31.9090909 L54.8227942,31.9098114 C55.1789344,31.4248809 55.4816453,30.896541 55.721985,30.333939 L55.721985,30.333939 L61.0840915,30.3337429 C61.3321468,30.3419183 61.5618114,30.4720593 61.7000428,30.6841756 L61.7000428,30.6841756 L63.5125494,33.4641434 C63.3741316,33.7005336 63.2945659,33.9771249 63.2945659,34.2727273 C63.2945659,35.1429942 63.9841944,35.8484848 64.8348944,35.8484848 C65.6855943,35.8484848 66.3752229,35.1429942 66.3752229,34.2727273 C66.3752229,33.4508086 65.7600912,32.7758661 64.9750957,32.7034093 L64.9750957,32.7034093 L64.863,32.697 L62.9816735,29.8101026 L62.9610475,29.7789891 C62.5302415,29.140103 61.8194858,28.7575758 61.0592274,28.7575758 L61.0592274,28.7575758 L56.2089071,28.7581794 C56.3100118,28.2488493 56.3630877,27.7216746 56.3630877,27.1818182 L56.3630877,27.1818182 L61.0592274,27.1818182 L61.233688,27.1750852 C61.9271763,27.1214509 62.5633804,26.7501459 62.9610475,26.1604048 L62.9610475,26.1604048 L62.9816735,26.1292914 L64.864,23.241 L64.8348944,23.2424242 C65.6855943,23.2424242 66.3752229,22.5369335 66.3752229,21.6666667 C66.3752229,20.7963998 65.6855943,20.0909091 64.8348944,20.0909091 C63.9841944,20.0909091 63.2945659,20.7963998 63.2945659,21.6666667 C63.2945659,21.962269 63.3741316,22.2388603 63.5125494,22.4752505 L63.5125494,22.4752505 L61.7000428,25.2552183 L61.6354157,25.3409898 C61.4958176,25.5020287 61.2967103,25.5986436 61.0840915,25.6056511 L61.0840915,25.6056511 L61.0592274,25.6060606 L56.2091054,25.6064564 C56.1003143,25.058039 55.935841,24.5303046 55.721985,24.0296974 L55.721985,24.0296974 L58.0032544,24.030303 L58.177715,24.02357 C58.8712033,23.9699358 59.5074074,23.5986307 59.9050745,23.0088896 L59.9050745,23.0088896 L59.9257006,22.9777762 L61.809,20.088 L61.7542374,20.0909091 C62.6049373,20.0909091 63.2945659,19.3854184 63.2945659,18.5151515 C63.2945659,17.6448846 62.6049373,16.9393939 61.7542374,16.9393939 Z M113.218176,18.7446223 L110.916096,18.7446223 L110.916096,34.373422 L113.218176,34.373422 L113.218176,32.557102 L113.323776,32.557102 C113.682816,33.528622 113.682816,33.528622 114.495936,34.077742 C115.309056,34.626862 115.309056,34.626862 116.407296,34.626862 C118.498176,34.626862 118.498176,34.626862 119.638656,33.116782 C120.779136,31.6067021 120.779136,31.6067021 120.779136,28.8822221 C120.779136,26.1577422 120.779136,26.1577422 119.638656,24.6476622 C118.498176,23.1375822 118.498176,23.1375822 116.407296,23.1375822 C115.309056,23.1375822 115.309056,23.1375822 114.495936,23.6761422 C113.773163,24.1548622 113.773163,24.1548622 113.409169,24.9923615 L113.323776,25.2073422 L113.218176,25.2073422 L113.218176,18.7446223 Z M103.080576,23.1375822 C101.475456,23.1375822 101.475456,23.1375822 100.482816,23.7395022 C99.6142565,24.2661822 99.6142565,24.2661822 99.0852665,25.0434972 L98.9410565,25.2707022 L100.313857,26.5167822 C100.736256,25.8620622 100.736256,25.8620622 101.348736,25.4396622 C101.961216,25.0172622 101.961216,25.0172622 102.932736,25.0172622 C104.094336,25.0172622 104.094336,25.0172622 104.643456,25.5663822 C105.131563,26.0544888 105.131563,26.0544888 105.185797,26.9097185 L105.192576,27.1292622 L105.192576,28.0585421 L103.207296,28.0585421 C100.905216,28.0585421 100.905216,28.0585421 99.7119365,28.8822221 C98.5186565,29.7059021 98.5186565,29.7059021 98.5186565,31.3532621 C98.5186565,32.852782 98.5186565,32.852782 99.4373765,33.739822 C100.356097,34.626862 100.356097,34.626862 102.066816,34.626862 C103.270656,34.626862 103.270656,34.626862 104.115456,34.098862 C104.86639,33.6295287 104.86639,33.6295287 105.200138,32.7596976 L105.277056,32.535982 L105.382656,32.535982 C105.488256,33.338542 105.488256,33.338542 105.974016,33.855982 C106.405803,34.3159287 106.405803,34.3159287 107.171338,34.3670339 L107.367936,34.373422 L108.656256,34.373422 L108.656256,32.493742 L107.494656,32.493742 L107.494656,26.9814222 C107.494656,25.1228622 107.494656,25.1228622 106.354176,24.1302222 C105.213696,23.1375822 105.213696,23.1375822 103.080576,23.1375822 Z M83.5445768,19.3782223 C82.1084169,19.3782223 82.1084169,19.3782223 80.9573769,19.8745423 C79.8063369,20.3708623 79.8063369,20.3708623 79.0037769,21.3423823 C78.2012169,22.3139022 78.2012169,22.3139022 77.778817,23.7289422 C77.356417,25.1439822 77.356417,25.1439822 77.356417,27.0025422 C77.356417,30.7196621 77.356417,30.7196621 79.0037769,32.673262 C80.6511369,34.626862 80.6511369,34.626862 83.5445768,34.626862 C85.4664968,34.626862 85.4664968,34.626862 86.7970568,33.718702 C88.0066567,32.893102 88.0066567,32.893102 88.7275295,31.4915021 L88.8668167,31.2054221 L86.9448968,30.0438221 C86.5436168,31.1209421 86.5436168,31.1209421 85.7093768,31.8073421 C84.8751368,32.493742 84.8751368,32.493742 83.5445768,32.493742 C81.8338569,32.493742 81.8338569,32.493742 80.8623369,31.3321421 C79.9602112,30.2535135 79.9602112,30.2535135 79.8957736,28.4100393 L79.8908169,28.1219021 L79.8908169,25.8831822 C79.8908169,23.8345422 79.8908169,23.8345422 80.8623369,22.6729422 C81.8338569,21.5113423 81.8338569,21.5113423 83.5445768,21.5113423 C84.8328968,21.5113423 84.8328968,21.5113423 85.6248968,22.1343823 C86.3288968,22.6881956 86.3288968,22.6881956 86.7074923,23.5841007 L86.7970568,23.8134222 L88.8034567,22.7151822 C88.0642567,21.0678223 88.0642567,21.0678223 86.7653768,20.2230223 C85.4664968,19.3782223 85.4664968,19.3782223 83.5445768,19.3782223 Z M93.5343366,23.3910222 L91.2322567,23.3910222 L91.2322567,34.373422 L93.5343366,34.373422 L93.5343366,27.3615821 C93.5343366,26.4956622 93.5343366,26.4956622 94.2629766,26.0521422 C94.9187526,25.6529742 94.9187526,25.6529742 96.0962982,25.6130574 L96.3644166,25.6086222 L97.2725766,25.6086222 L97.2725766,23.3910222 L96.6600966,23.3910222 C95.3506566,23.3910222 95.3506566,23.3910222 94.6114566,24.0246222 C93.9646566,24.5790222 93.9646566,24.5790222 93.7059366,25.2951222 L93.6399366,25.5030222 L93.5343366,25.5030222 L93.5343366,23.3910222 Z M48.6614452,20.8787879 C52.064245,20.8787879 54.8227592,23.7007507 54.8227592,27.1818182 C54.8227592,30.6628857 52.064245,33.4848485 48.6614452,33.4848485 C45.2586455,33.4848485 42.5001313,30.6628857 42.5001313,27.1818182 C42.5001313,23.7007507 45.2586455,20.8787879 48.6614452,20.8787879 Z M105.192576,29.5369421 L105.192576,31.1209421 C105.192576,31.9235021 105.192576,31.9235021 104.495616,32.398702 C103.798656,32.873902 103.798656,32.873902 102.721536,32.873902 C101.855616,32.873902 101.855616,32.873902 101.359296,32.504302 C100.918123,32.1757687 100.918123,32.1757687 100.869104,31.5552058 L100.862976,31.3955021 L100.862976,31.0153421 C100.862976,29.6041421 100.862976,29.6041421 103.037507,29.5399967 L103.249536,29.5369421 L105.192576,29.5369421 Z M115.710336,25.1228622 C116.914176,25.1228622 116.914176,25.1228622 117.632256,25.8937422 C118.285056,26.5945422 118.285056,26.5945422 118.344402,27.705524 L118.350336,27.9318221 L118.350336,29.8326221 C118.350336,31.0998221 118.350336,31.0998221 117.632256,31.8707021 C116.914176,32.641582 116.914176,32.641582 115.710336,32.641582 C114.654336,32.641582 114.654336,32.641582 113.936256,32.1241421 C113.289984,31.6584461 113.289984,31.6584461 113.225357,30.9275885 L113.218176,30.7619021 L113.218176,27.0025422 C113.218176,26.1577422 113.218176,26.1577422 113.936256,25.6403022 C114.654336,25.1228622 114.654336,25.1228622 115.710336,25.1228622 Z M48.6614452,22.4545455 C46.1093454,22.4545455 44.0404597,24.5710175 44.0404597,27.1818182 C44.0404597,29.7926188 46.1093454,31.9090909 48.6614452,31.9090909 C51.213545,31.9090909 53.2824307,29.7926188 53.2824307,27.1818182 C53.2824307,24.5710175 51.213545,22.4545455 48.6614452,22.4545455 Z M54.0525949,13 L54.0525949,16.1515152 L51.8742415,13.9230574 L51.7393764,14.0700898 C51.2616778,14.6252548 50.971938,15.3537705 50.971938,16.1515152 C50.971938,17.8920489 52.3511951,19.3030303 54.0525949,19.3030303 C55.7539948,19.3030303 57.1332519,17.8920489 57.1332519,16.1515152 C57.1332519,14.4709998 55.847476,13.0977009 54.2274093,13.0049889 L54.2274093,13.0049889 L54.0525949,13 Z M43.2702955,13 C41.5688956,13 40.1896385,14.4109814 40.1896385,16.1515152 C40.1896385,17.8920489 41.5688956,19.3030303 43.2702955,19.3030303 C44.9716954,19.3030303 46.3509525,17.8920489 46.3509525,16.1515152 C46.3509525,15.0577719 45.8063105,14.0941625 44.9793402,13.529034 L44.9793402,13.529034 L43.2702955,16.1515152 Z" id="形状结合" fill="url(#linearGradient-1)" fill-rule="nonzero"></path>
    </g>
</svg>