<svg width="21" height="21" viewBox="0 0 21 21" fill="none" xmlns="http://www.w3.org/2000/svg">
<path d="M18.9 16.8H16.8V18.9C16.8 20.055 15.855 21 14.7 21H2.1C0.945001 21 0 20.055 0 18.9V6.30001C0 5.14501 0.945001 4.20001 2.1 4.20001H4.20001V2.1C4.20001 0.945001 5.14501 0 6.30001 0H18.9C20.055 0 21 0.945001 21 2.1V14.7C21 15.855 20.055 16.8 18.9 16.8ZM3.15 6.30001C2.52 6.30001 2.1 6.72001 2.1 7.35001V17.85C2.1 18.48 2.52 18.9 3.15 18.9H13.65C14.28 18.9 14.7 18.48 14.7 17.85V7.35001C14.7 6.72001 14.28 6.30001 13.65 6.30001H3.15ZM18.9 3.15C18.9 2.52 18.48 2.1 17.85 2.1H7.35001C6.72001 2.1 6.30001 2.52 6.30001 3.15V4.20001H14.7C15.855 4.20001 16.8 5.14501 16.8 6.30001V14.7H17.85C18.48 14.7 18.9 14.28 18.9 13.65V3.15Z" fill="#EC3783"/>
</svg>
