<svg width="28" height="28" viewBox="0 0 28 28" fill="none" xmlns="http://www.w3.org/2000/svg">
<path d="M14.3115 23.9996C19.0488 24.0191 23.2368 21.6352 25.7717 18.0162C26.7981 16.5511 27.5536 14.8798 27.9647 13.0764C27.9881 13.4074 28 13.7416 28 14.0786C28 21.7672 21.8003 28 14.1526 28C5.8434 28 0 22.2329 0 15.1187C0 9.57963 3.54241 4.85711 8.5133 3.03753C9.7214 2.62323 10.9558 2.39746 12.2426 2.39746C18.2201 2.39746 23.3842 7.26909 23.3842 13.2785C23.3842 14.311 23.2412 15.3098 22.6556 16.2561C22.8754 15.6724 22.9067 15.2392 22.9067 14.7987C22.9067 9.80554 18.7213 5.91781 13.7547 5.91781C8.78805 5.91781 4.76181 9.96556 4.76181 14.9587C4.76181 19.1872 7.64936 22.7377 11.5502 23.726C12.3454 23.8858 13.1583 23.9958 14.3115 23.9996Z" fill="url(#paint0_linear_1034_1942)"/>
<path d="M13.6885 4.0004C8.95121 3.98091 4.76315 6.3648 2.22832 9.98384C1.20185 11.4489 0.446379 13.1202 0.0353305 14.9236C0.0119102 14.5926 0 14.2584 0 13.9214C0 6.23281 6.19971 0 13.8474 0C22.1566 0 28 5.76714 28 12.8813C28 18.4204 24.4576 23.1429 19.4867 24.9625C18.2786 25.3768 17.0442 25.6025 15.7574 25.6025C9.77988 25.6025 4.61581 20.7309 4.61581 14.7215C4.61581 13.689 4.75883 12.6902 5.34438 11.7439C5.12465 12.3276 5.0933 12.7608 5.0933 13.2013C5.0933 18.1945 9.27871 22.0822 14.2453 22.0822C19.212 22.0822 23.2382 18.0344 23.2382 13.0413C23.2382 8.81276 20.3506 5.26225 16.4498 4.27401C15.6546 4.11416 14.8417 4.00419 13.6885 4.0004Z" fill="url(#paint1_linear_1034_1942)"/>
<defs>
<linearGradient id="paint0_linear_1034_1942" x1="-1.88455e-06" y1="4.49579" x2="25.91" y2="28.1873" gradientUnits="userSpaceOnUse">
<stop stop-color="#FE3876"/>
<stop offset="0.714448" stop-color="#7C30DD"/>
<stop offset="1" stop-color="#3A30DD"/>
</linearGradient>
<linearGradient id="paint1_linear_1034_1942" x1="28" y1="23.5042" x2="2.08995" y2="-0.187326" gradientUnits="userSpaceOnUse">
<stop stop-color="#FE3876"/>
<stop offset="0.714448" stop-color="#7C30DD"/>
<stop offset="1" stop-color="#3A30DD"/>
</linearGradient>
</defs>
</svg>
