<svg width="20" height="20" viewBox="0 0 20 20" fill="none" xmlns="http://www.w3.org/2000/svg">
<path opacity="0.5" fill-rule="evenodd" clip-rule="evenodd" d="M9.98883 0C11.3743 0 12.6741 0.264432 13.8883 0.793296C15.1024 1.32216 16.1639 2.03724 17.0726 2.93855C17.9814 3.83985 18.6965 4.89758 19.2179 6.11173C19.7393 7.32588 20 8.6257 20 10.0112C20 11.3966 19.7393 12.6927 19.2179 13.8994C18.6965 15.1061 17.9814 16.1639 17.0726 17.0726C16.1639 17.9814 15.1024 18.6965 13.8883 19.2179C12.6741 19.7393 11.3743 20 9.98883 20C8.60335 20 7.30726 19.7393 6.10056 19.2179C4.89385 18.6965 3.83613 17.9814 2.92737 17.0726C2.01862 16.1639 1.30354 15.1061 0.782123 13.8994C0.260708 12.6927 0 11.3966 0 10.0112C0 8.6257 0.260708 7.32588 0.782123 6.11173C1.30354 4.89758 2.01862 3.83985 2.92737 2.93855C3.83613 2.03724 4.89385 1.32216 6.10056 0.793296C7.30726 0.264432 8.60335 0 9.98883 0ZM9.69333 15.9796C9.99519 15.9796 10.2477 15.878 10.4509 15.6749C10.654 15.4717 10.7556 15.225 10.7556 14.9347C10.7556 14.6329 10.654 14.3804 10.4509 14.1772C10.2477 13.974 9.99519 13.8725 9.69333 13.8725C9.39148 13.8725 9.13897 13.974 8.9358 14.1772C8.73263 14.3804 8.63105 14.6329 8.63105 14.9347C8.63105 15.225 8.73263 15.4717 8.9358 15.6749C9.13897 15.878 9.39148 15.9796 9.69333 15.9796ZM10.9298 11.1035C10.686 11.3125 10.5699 11.5099 10.5815 11.6956V12.1136C10.5931 12.3226 10.5205 12.5083 10.3638 12.6708C10.2071 12.8334 9.9952 12.9205 9.72817 12.9321C9.46115 12.9205 9.24637 12.8363 9.08383 12.6796C8.9213 12.5228 8.84003 12.3574 8.84003 12.1832L8.82261 11.5215C8.83422 11.2893 8.90098 11.0745 9.02288 10.8771C9.14478 10.6798 9.29571 10.4969 9.47566 10.3286C9.65561 10.1602 9.84717 9.99771 10.0503 9.84098C10.2535 9.68425 10.4451 9.52751 10.625 9.37078C10.805 9.21405 10.953 9.05152 11.0691 8.88317C11.1852 8.71483 11.2432 8.53198 11.2432 8.33462C11.2665 7.93989 11.1213 7.61191 10.8079 7.35069C10.4944 7.08947 10.0765 6.95886 9.55403 6.95886C9.287 6.95886 9.0461 7.02272 8.83132 7.15042C8.61654 7.27813 8.43369 7.43486 8.28276 7.62062C8.13184 7.80637 8.01284 8.00084 7.92576 8.20401C7.83869 8.40718 7.79516 8.57842 7.79516 8.71774C7.79516 8.94993 7.70808 9.12698 7.53394 9.24888C7.35979 9.37078 7.16823 9.42883 6.95926 9.42303C6.75028 9.41722 6.55582 9.34466 6.37587 9.20534C6.19592 9.06603 6.10014 8.84544 6.08853 8.54359C6.07692 8.28818 6.12916 7.97181 6.24526 7.5945C6.36136 7.21718 6.56453 6.85147 6.85477 6.49738C7.14501 6.14328 7.52523 5.84143 7.99542 5.59182C8.46562 5.34221 9.05481 5.21741 9.763 5.21741C10.3319 5.21741 10.8282 5.30158 11.2519 5.46992C11.6757 5.63826 12.0211 5.86465 12.2881 6.14909C12.5551 6.43352 12.7467 6.77311 12.8628 7.16784C12.9789 7.56257 13.0253 7.98632 13.0021 8.4391C12.9789 8.85705 12.8396 9.22566 12.5842 9.54493C12.3287 9.86419 12.0501 10.1515 11.7483 10.4069C11.4464 10.6624 11.1736 10.8946 10.9298 11.1035Z" fill="#EC3783"/>
</svg>
